# xmcd
#
# Track frame offsets:
#	150
#	16807
#	27903
#	38848
#	53975
#	64031
#	80199
#	93975
#	109319
#	124783
#	139271
#
# Disc length: 2074 seconds
# Revision: 0
# Processed by: cddbd v1.5.2PL0 Copyright (c) Steve Scherf et al.
# Submitted via: dBpowerAMP V12.0
#
DISCID=9408180b
DTITLE=Westwood - Made In Colorado
DYEAR=2014
DGENRE=Country
TTITLE0=Take Your Time
TTITLE1=Jody
TTITLE2=Can't Ignore The Rain
TTITLE3=Without You
TTITLE4=Sound Of Your Voice
TTITLE5=Good-Bye
TTITLE6=Bad News In The Morning
TTITLE7=The Blues
TTITLE8=After All This Time
TTITLE9=Running Blind
TTITLE10=Waving Good-Bye
EXTD=
EXTT0=
EXTT1=
EXTT2=
EXTT3=
EXTT4=
EXTT5=
EXTT6=
EXTT7=
EXTT8=
EXTT9=
EXTT10=
PLAYORDER=
